<svg id="_x33_0" enable-background="new 0 0 58 58" height="512" viewBox="0 0 58 58" width="512" xmlns="http://www.w3.org/2000/svg"><g><path d="m24 36c-.676 0-1.342-.038-2-.107v2.107h4v-2.108c-.66.069-1.327.108-2 .108z"/><path d="m29 44h-2c-.551 0-1 .448-1 1s.449 1 1 1h2c.551 0 1-.448 1-1s-.449-1-1-1z"/><path d="m22.105 42.553.277-.553h3.618c1.103 0 2-.897 2-2h-10.169c-3.163 0-6.134 1.65-7.831 4.309v9.25c1.709 1.571 3.907 2.441 6.243 2.441h3.757v-1.697l-.078-.117c-1.008-1.512-2.513-2.661-4.238-3.237l.633-1.896c1.37.457 2.626 1.208 3.684 2.179v-4.51l-.684.228-.633-1.896.879-.293c1.114-.374 2.018-1.157 2.542-2.208z"/><path d="m29 48h-2c-.551 0-1 .448-1 1s.449 1 1 1h2c.551 0 1-.448 1-1s-.449-1-1-1z"/><path d="m24 53c0-.771.301-1.468.78-2-.48-.532-.78-1.229-.78-2s.301-1.468.78-2c-.48-.532-.78-1.229-.78-2 0-.352.072-.686.184-1h-.601c-.42.669-.961 1.237-1.583 1.702v11.298c0 .552.449 1 1 1h2c.551 0 1-.448 1-1v-1.184c-1.161-.414-2-1.514-2-2.816z"/><path d="m29 52h-2c-.551 0-1 .448-1 1s.449 1 1 1h2c.551 0 1-.448 1-1s-.449-1-1-1z"/><path d="m34.702 26c-2.569 3.05-6.402 5-10.702 5-7.732 0-14-6.268-14-14s6.268-14 14-14c3.266 0 6.267 1.125 8.648 3h4.307c-3.214-3.785-7.93-6-12.955-6-9.374 0-17 7.626-17 17s7.626 17 17 17c5.024 0 9.702-2.194 12.942-6.01l-.663-1.99z"/><path d="m0 44h8v10h-8z"/><path d="m57 8h-35c-.551 0-1 .448-1 1v14c0 .552.449 1 1 1h15.721l1.912 5.735c.105.316.63.316.735 0l1.911-5.735h14.721c.551 0 1-.448 1-1v-14c0-.552-.449-1-1-1zm-24 11h-2v3h-2v-3h-6.443l3.506-9.352 1.873.703-2.493 6.649h3.557v-5h2v5h2zm10 1c0 1.103-.897 2-2 2h-4c-1.103 0-2-.897-2-2v-8c0-1.103.897-2 2-2h4c1.103 0 2 .897 2 2zm13-1h-2v3h-2v-3h-6.443l3.506-9.352 1.873.703-2.493 6.649h3.557v-5h2v5h2z"/><path d="m37 12h4.001v8h-4.001z"/><circle cx="39" cy="53" r="2"/><path d="m40 37h-2c-.552 0-1 .448-1 1v8c0 .552.448 1 1 1h2c.552 0 1-.448 1-1v-8c0-.552-.448-1-1-1z"/><circle cx="47" cy="53" r="2"/><path d="m48 37h-2c-.552 0-1 .448-1 1v8c0 .552.448 1 1 1h2c.552 0 1-.448 1-1v-8c0-.552-.448-1-1-1z"/><circle cx="55" cy="53" r="2"/><path d="m56 37h-2c-.552 0-1 .448-1 1v8c0 .552.448 1 1 1h2c.552 0 1-.448 1-1v-8c0-.552-.448-1-1-1z"/></g></svg>